<?xml version="1.0" encoding="utf-8" ?><svg xmlns="http://www.w3.org/2000/svg" xmlns:xlink="http://www.w3.org/1999/xlink" width="1036" height="1036" viewBox="0 0 1036 1036"><path fill="#0D3B66" transform="scale(1.01172 1.01172)" d="M557.232 53.7856C571.079 52.57 588.912 53.3347 602.816 54.09C674.416 57.9792 747.278 72.1139 812.979 101.398C816.532 102.982 819.842 104.699 823.661 105.607C758.366 117.454 696.176 141.549 639.698 176.395C623.39 186.457 610.301 195.015 595.448 207.219C545.272 248.444 498.361 296.999 477.447 359.908C472.771 373.973 467.317 387.971 466.314 402.911C475.455 392.593 478.812 387.378 486.138 376.073C482.589 396.872 477.563 398.419 465.397 414.856C481.078 407.68 488.829 401.834 500.959 389.819C490.995 406.17 485.899 411.694 468.183 420.534C469.308 437.979 483.375 470.499 492.011 486.32C495.89 493.426 502.655 503.419 507.295 510.101C536.562 512.976 580.507 532.905 604.79 549.482C616.682 557.6 638.443 576.62 649.316 587.105C662.633 549.857 708.521 499.962 741.539 479.152C753.189 481.515 771.247 486.55 781.827 491.482C780.351 501.737 776.593 515.554 774.207 525.954L756.566 599.709C751.596 619.875 747.649 643.674 743.001 664.621C744.785 665.368 749.237 667.386 750.135 668.76C761.458 686.087 745.785 710.354 732.152 721.344C725.952 726.342 721.965 728.782 716.973 733.282C702.992 745.883 688.838 757.65 675.383 770.702C685.586 773.823 693.422 776.399 703.977 778.948C763.239 793.258 829.268 793.657 888.835 780.624C910.719 775.836 943.498 766.116 965.139 758.682L961.518 763.705C936.183 801.979 909.377 828.648 873.642 857.425C786.389 927.686 679.36 963.232 568.396 969.464C432.773 977.08 296.821 938.826 195.618 845.742C112.828 770.21 61.7961 670.762 55.4357 558.068C48.3707 432.89 93.3898 311.183 177.082 218.206C249.325 137.949 350.764 87.0236 455.855 65.3961C489.155 58.543 523.257 55.5182 557.232 53.7856Z"/><path fill="#F4D35E" transform="scale(1.01172 1.01172)" d="M543.729 68.2841C558.06 67.4483 575.349 67.806 589.838 68.3085C655.186 70.5745 714.415 82.7478 775.81 104.586C766.057 107.736 755.686 109.742 745.903 112.915C620.637 153.54 466.031 259.813 459.672 405.041C456.029 408.805 452.056 412.648 448.333 416.365C450.231 408.993 456.286 381.58 450.909 376.427C447.756 378.884 445.989 412.617 432.593 425.106C428.23 429.174 422.12 432.347 416.005 432.01C412.42 431.813 409.196 430.245 406.886 427.485C400.679 420.067 401.015 406.616 401.822 397.578C403.319 380.804 410.413 354.633 424.151 343.53C427.105 341.142 430.752 339.544 434.616 340.109C439.605 340.838 442.822 346.706 445.538 350.476C437.822 324.156 418.576 331.388 407.542 350.014C395.118 370.989 389.031 399.092 394.204 423.031C395.476 428.917 399.728 435.322 405.159 438.125C410.818 441.643 426.453 442.404 431.931 438.09C442.524 429.748 447.995 426.558 461.504 422.561C462.232 442.096 469.604 466.714 477.351 484.861C480.18 491.488 485.698 501.353 489.127 507.766C477.431 509.616 465.442 511.903 456.505 520.057C452.993 531.044 449.464 547.879 446.332 559.588C436.081 597.909 427.623 637.476 417.323 675.729C405.489 680.201 402.13 681.688 391.852 689.07C376.119 678.606 366.916 692.945 359.973 705.142C350.884 701.995 342.296 697.814 333.524 693.905C281.469 670.716 234.561 635.735 195.666 594.239C188.85 586.968 183.284 578.748 176.769 571.257C203.368 632.234 271.181 678.508 328.949 706.356C336.895 710.187 347.366 713.592 355.699 716.546C354.053 741.33 358.884 739.262 378.787 744.399C383.667 745.659 386.824 752.336 388.562 756.987C393.226 759.795 405.126 764.088 410.555 766.088L441.472 777.451L552.015 818.279C559.727 821.084 567.886 823.933 575.477 827.015C578.724 828.705 581.96 832.351 585.319 833.669C590.432 835.674 602.874 835.406 607.507 832.563C611.19 830.303 611.853 823.744 616.266 819.936C622.7 814.385 629.313 808.869 635.972 803.548C643.402 797.516 650.282 791.186 657.194 784.59L660.197 782.021C663.593 782.875 667.521 784.091 670.848 785.162C738.532 806.951 811.475 809.292 881.031 795.495C897.245 792.279 913.553 787.208 929.897 783.492C915.511 793.777 876.156 807.844 858.152 812.088C843.794 815.51 829.352 818.693 814.976 822.037C812.14 822.697 799.287 824.271 797.737 825.826C838.338 823.32 881.152 810.594 918.795 795.729C829.128 896.078 693.341 953.653 559.771 957.761C543.774 958.419 527.712 957.365 511.737 956.688C395.811 951.652 283.793 907.543 198.482 828.638C101.022 738.497 55.9496 611.856 73.4521 480.477C86.7157 380.915 132.27 289.608 200.583 216.136C225.729 189.091 254.115 163.831 284.892 143.268C358.531 95.5023 456.491 71.246 543.729 68.2841Z"/><path fill="#0D3B66" transform="scale(1.01172 1.01172)" d="M386.485 444.973C393.945 447.087 406.645 456.641 415.942 459.245C425.329 462.353 434.821 463.304 444.611 464.14C450.203 464.618 466.425 463.352 465.458 472.299C464.752 478.83 458.1 485.462 453.895 490.036C439.734 505.438 422.604 516.138 405.129 527.288C401.681 557.009 396.693 585.715 384.613 613.43C377.107 630.652 363.922 640.878 345.286 631.311C325.276 621.038 315.807 592.143 309.33 571.867C305.104 558.137 301.912 540.986 301.445 526.737C292.722 531.336 288.371 534.077 278.197 532.834C291.513 527.632 301.935 522.01 309.272 508.906C310.721 506.318 312.548 501.655 314.603 499.923L315.243 500.342C316.683 506.527 311.581 514.148 308.481 519.486C331.791 534.673 361.539 534.781 386.652 524.722C413.802 513.846 437.9 499.286 453.966 474.177C428.193 471.079 404.769 465.384 386.485 444.973Z"/><path fill="#FAF0CA" transform="scale(1.01172 1.01172)" d="M309.145 527.799C312.794 529.292 316.658 531.798 321.289 533.5C348.913 543.65 363.572 540.294 390.177 532.917C388.553 536.777 386.422 539.915 383.93 543.238C359.828 568.002 324.315 555.501 309.145 527.799Z"/><path fill="#F4D35E" transform="scale(1.01172 1.01172)" d="M335.332 596.086C345.316 595.793 353.154 602.209 359.238 609.497C362.048 612.863 365.299 616.868 364.876 621.455C363.775 623.142 364.143 622.61 361.984 623.554C352.297 622.236 345.794 616.391 339.507 609.329C336.838 606.332 332.986 602.444 332.762 598.274C333.565 596.596 333.291 597.131 335.332 596.086Z"/><path fill="#0D3B66" transform="scale(1.01172 1.01172)" d="M304.924 331.639C315.169 331.472 319.531 337.884 323.488 346.214C318.353 342.442 313.194 338.494 306.444 340.11C296.402 342.514 287.232 352.416 282.09 361.01C269.651 381.799 260.256 409.309 264.453 433.744C265.609 439.535 269.367 445.8 274.616 448.682C290.259 457.177 314.935 447.967 323.692 433.11C333.283 416.84 330.139 399.852 325.706 382.658C331.133 389.94 332.953 395.773 336.223 404.123C336.699 394.531 337.612 384.096 338.402 374.519C340.96 390.274 341.948 404.044 339.411 419.991C336.093 440.841 326.708 452.261 307.84 460.838C286.02 469.658 272.887 462.989 255.958 448.92C227.015 449.52 208.402 444.772 197.056 416.177C213.654 436.047 225.312 441.215 251.309 439.298C229.853 426.867 224.586 415.488 221.349 391.409C231.762 410.705 230.402 416.411 251.5 428.639C251.324 399.005 260.982 367.521 281.295 345.395C287.993 338.1 295.188 333.539 304.924 331.639Z"/><path fill="#0D3B66" transform="scale(1.01172 1.01172)" d="M315.239 250.684C317.45 250.326 321.078 250.489 323.305 251.067C342.465 256.037 340.063 276.848 336.542 290.678C307.299 278.658 285.435 286.65 260.213 304.066C257.352 306.132 245.399 317.752 243.132 317.464L242.638 316.442C242.685 308.256 253.63 291.213 258.659 284.905C273.58 266.186 291.296 253.689 315.239 250.684Z"/><path fill="#0D3B66" transform="scale(1.01172 1.01172)" d="M440.008 259.106C461.392 257.979 473.498 284.452 472.099 302.487C471.708 307.532 470.809 311.157 469.374 315.993C465.41 310.647 462.617 307.404 457.891 302.732C442.519 289.584 431.694 290.07 412.555 291.081C417.792 276.689 423.16 262.47 440.008 259.106Z"/><path fill="#0D3B66" transform="scale(1.01172 1.01172)" d="M509.32 242.997C516.577 229.74 536.446 212.716 547.829 202.635C600.024 156.414 669.812 118.662 738.867 106.71L739.42 107.831C722.337 112.429 707.575 116.56 690.847 122.648C639.897 141.191 594.161 169.338 552.618 203.993C537.569 216.548 523.64 229.644 509.32 242.997Z"/><path fill="#0D3B66" transform="scale(1.01172 1.01172)" d="M607.149 868.758C616.477 866.807 625.622 872.78 627.584 882.106C629.546 891.431 623.584 900.584 614.261 902.557C604.922 904.534 595.75 898.559 593.785 889.217C591.819 879.876 597.805 870.712 607.149 868.758Z"/><path fill="#FBF370" transform="scale(1.01172 1.01172)" d="M607.597 870.727C615.778 868.975 623.821 874.223 625.51 882.418C627.2 890.613 621.89 898.614 613.682 900.241C605.564 901.85 597.667 896.61 595.996 888.503C594.324 880.397 599.504 872.461 607.597 870.727Z"/><path fill="#0D3B66" transform="scale(1.01172 1.01172)" d="M343.16 785.255C352.536 784.234 360.957 791.023 361.95 800.401C362.943 809.78 356.13 818.181 346.749 819.147C337.406 820.108 329.047 813.329 328.058 803.99C327.07 794.65 333.824 786.271 343.16 785.255Z"/><path fill="#C6C9CE" transform="scale(1.01172 1.01172)" d="M342.175 787.076C348.496 786.96 356.019 789.2 358.827 795.215C363.78 805.825 356.234 812.343 347.846 816.396C327.121 816.706 321.813 795.557 342.175 787.076Z"/><path fill="#4D3443" transform="scale(1.01172 1.01172)" d="M489.622 113.061C513.003 111.893 514.34 139.625 492.441 146.842C489.445 146.907 486.648 146.646 483.943 145.635C470.191 140.495 471.322 123.165 482.843 116.177C485.304 114.684 487.054 114.032 489.622 113.061Z"/><path fill="#FBF370" transform="scale(1.01172 1.01172)" d="M491.228 114.154C512.132 115.517 510.734 140.359 490.114 144.934C469.088 142.897 471.25 119.012 491.228 114.154Z"/><path fill="#0D3B66" transform="scale(1.01172 1.01172)" d="M283.818 859.24L284.314 858.052C297.493 866.378 309.03 874.439 322.705 882.026C391.882 920.405 464.062 937.818 542.015 946.163C540.012 947.533 537.893 947.051 535.478 947.058C524.523 946.636 506.873 944.107 495.976 942.521C436.794 933.911 378.25 916.634 325.888 887.35C311.238 879.156 296.657 870.144 283.818 859.24Z"/><defs><linearGradient id="gradient_0" gradientUnits="userSpaceOnUse" x1="108.64467" y1="608.78308" x2="88.713211" y2="611.85968"><stop offset="0" stop-color="#6B4943"/><stop offset="1" stop-color="#434066"/></linearGradient></defs><path fill="url(#gradient_0)" transform="scale(1.01172 1.01172)" d="M83.9774 506.732C85.1148 508.292 84.8654 512.266 84.8996 514.308C85.1417 528.762 85.201 543.217 85.6263 557.669C87.1025 607.826 98.7577 657.994 120.87 703.111C121.836 705.083 124.992 711.414 125.261 713.211L124.631 712.732C117.666 702.5 112.914 691.845 108.081 680.533C90.7471 639.965 83.5276 594.902 81.8306 551.041C81.3466 538.531 81.4689 518.884 83.9774 506.732Z"/><path fill="#4D3443" transform="scale(1.01172 1.01172)" d="M217.12 746.602C235.173 748.509 234.226 769.469 216.664 772.818C198.889 771.098 199.688 752.367 217.12 746.602Z"/><path fill="#F4D35E" transform="scale(1.01172 1.01172)" d="M216.259 748.028C231.382 748.396 232.82 765.875 217.146 770.491C201.247 769.416 201.938 753.856 216.259 748.028Z"/><path fill="#4D3443" transform="scale(1.01172 1.01172)" d="M731.774 839.486C745.544 837.619 750.037 857.987 734.05 864.775C720.82 865.749 716.034 846.808 731.774 839.486Z"/><path fill="#F4D35E" transform="scale(1.01172 1.01172)" d="M732.139 840.456C746.398 840.738 745.33 855.802 733.631 862.551C722.417 862.334 720.977 852.004 727.046 844.5C728.387 842.842 730.373 841.627 732.139 840.456Z"/><path fill="#0D3B66" transform="scale(1.01172 1.01172)" d="M627.745 96.1583C643.529 97.6881 643.95 113.949 627.504 118.76C610.8 117.096 611.092 99.6009 627.745 96.1583Z"/><path fill="#F4D35E" transform="scale(1.01172 1.01172)" d="M625.203 98.0329C639.728 97.9331 641.84 110.106 629.48 116.867C615.604 118.254 612.934 104.958 625.203 98.0329Z"/><path fill="#0D3B66" transform="scale(1.01172 1.01172)" d="M613.344 139.018L613.595 139.173C613.272 140.014 559.204 177.185 553.143 181.927C535.078 196.06 519.375 210.7 503.172 226.999L502.9 226.827C503.423 224.1 511.301 215.487 513.555 212.966C535.572 188.349 562.927 169.526 590.736 152.079C598.3 147.333 605.368 143.19 613.344 139.018Z"/><path fill="#0D3B66" transform="scale(1.01172 1.01172)" d="M233.859 835.05C237.503 836.629 245.883 843.32 249.446 845.96C259.587 853.423 269.346 861.911 279.842 868.84C296.019 879.521 312.547 889.692 329.779 898.587C333.939 900.734 338.218 902.907 342.174 905.388C328.595 903.128 301.714 887.264 289.97 879.511C280.197 873.06 236.466 843.45 233.859 835.05Z"/><path fill="#4D3443" transform="scale(1.01172 1.01172)" d="M381.786 169.971C399.317 170.057 392.933 186.539 380.643 191.942C363.032 191.277 368.411 174.893 381.786 169.971Z"/><path fill="#F4D35E" transform="scale(1.01172 1.01172)" d="M381.692 171.025C397.112 171.245 392.263 184.84 381.306 190.37C366.22 190.79 370.072 175.734 381.692 171.025Z"/><path fill="#0D3B66" transform="scale(1.01172 1.01172)" d="M314.664 140.44L315.172 140.545C314.813 142.428 275.346 173.486 270.887 176.99C255.286 189.252 241.68 203.472 226.803 216.355L226.171 216.205C226.668 214.663 232.27 208.556 233.783 206.999C255.173 184.996 287.806 154.966 314.664 140.44Z"/><path fill="#4D3443" transform="scale(1.01172 1.01172)" d="M154.224 334.44C160.956 334.258 164.551 338.077 161.954 344.696C159.28 351.51 155.644 354.732 149.31 357.916C134.853 358.183 141.791 345.719 147.618 339.63C149.735 337.419 151.706 336.089 154.224 334.44Z"/><path fill="#F4D35E" transform="scale(1.01172 1.01172)" d="M154.05 335.47C165.502 335.638 161.434 344.912 156.673 350.584C154.251 353.47 152.539 354.678 149.446 356.63C146.937 356.924 144.956 356.916 143.068 355.091C140.073 348.626 149.242 339.124 154.05 335.47Z"/><path fill="#0D3B66" transform="scale(1.01172 1.01172)" d="M449 811.493C460.759 811.395 474.605 819.759 461.327 830.32C451.343 831.447 436.576 820.734 449 811.493Z"/><path fill="#F4D35E" transform="scale(1.01172 1.01172)" d="M451.152 812.961C461.397 813.457 471.232 821.038 459.24 829.077C451.602 827.876 438.392 819.117 451.152 812.961Z"/><path fill="#4D3443" transform="scale(1.01172 1.01172)" d="M151.16 578.464C166.087 577.958 167.251 589.106 154.685 596.139C139.873 597.608 138.052 585.359 151.16 578.464Z"/><path fill="#FBF370" transform="scale(1.01172 1.01172)" d="M151.688 579.541C165.054 579.406 164.363 589.751 153.265 595.092C141.861 594.927 140.08 584.518 151.688 579.541Z"/><path fill="#4D3443" transform="scale(1.01172 1.01172)" d="M664.669 925.158C671.512 924.515 680.814 925.555 672.34 933.992C669.397 936.923 664.579 938.022 660.628 938.931C656.95 939.589 651.862 940.004 649.698 936.334C648.573 928.89 659.037 925.886 664.669 925.158Z"/><path fill="#F4D35E" transform="scale(1.01172 1.01172)" d="M664.048 926.596C667.014 926.349 670.489 925.928 672.735 928.115C674.238 933.831 664.358 936.413 660.346 937.433C657.372 937.877 653.86 938.556 651.747 935.976C651.199 930.206 659.593 927.58 664.048 926.596Z"/><path fill="#4D3443" transform="scale(1.01172 1.01172)" d="M139.157 660.321C149.928 662.598 155.489 675.429 146.553 682.988C134.708 680.625 130.23 669.296 139.157 660.321Z"/><path fill="#F4D35E" transform="scale(1.01172 1.01172)" d="M138.745 661.724C147.738 663.189 152.946 674.227 146.863 681.844C137.719 677.944 132.149 670.801 138.745 661.724Z"/><path fill="#4D3443" transform="scale(1.01172 1.01172)" d="M481.088 890.987C491.991 891.946 502.338 899.436 491.084 909.086C480.857 908.599 469.496 899.276 481.088 890.987Z"/><path fill="#F4D35E" transform="scale(1.01172 1.01172)" d="M480.593 892.419C488.575 892.845 500.094 898.141 491.289 906.921C483.884 909.249 473.45 901.226 480.593 892.419Z"/><defs><linearGradient id="gradient_1" gradientUnits="userSpaceOnUse" x1="116.41478" y1="642.05292" x2="111.77528" y2="643.42847"><stop offset="0" stop-color="#623C41"/><stop offset="1" stop-color="#484468"/></linearGradient></defs><path fill="url(#gradient_1)" transform="scale(1.01172 1.01172)" d="M102.284 599.885L103.181 598.216C106.746 617.652 110.702 633.772 117.281 652.492C121.443 664.336 126.321 675.974 130.42 687.619C116.447 668.285 103.81 623.802 102.284 599.885Z"/><defs><linearGradient id="gradient_2" gradientUnits="userSpaceOnUse" x1="842.34912" y1="834.08459" x2="843.28699" y2="836.66693"><stop offset="0" stop-color="#6C444E"/><stop offset="1" stop-color="#0E3A62"/></linearGradient></defs><path fill="url(#gradient_2)" transform="scale(1.01172 1.01172)" d="M879.393 820.695L880.002 821.43C856.32 834.992 828.936 843.4 802.455 849.542C811.809 844.613 823.09 841.352 833.252 838.104C849.602 832.879 864.014 828.285 879.393 820.695Z"/><path fill="#0D3B66" transform="scale(1.01172 1.01172)" d="M294.964 174.812L295.564 175.111C294.902 178.317 264.286 203.465 259.333 207.55C259.037 207.54 258.742 207.529 258.446 207.519C259.222 202.727 289.52 179.111 294.964 174.812Z"/><path fill="#4D3443" transform="scale(1.01172 1.01172)" d="M137.807 442.912C138.221 443.504 138.27 444.218 138.173 444.948C135.965 461.544 136.125 478.24 134.721 494.878C131.768 484.077 133.941 453.751 137.807 442.912Z"/><path fill="#4D3443" transform="scale(1.01172 1.01172)" d="M272.491 209.411C282.616 210.391 278.344 216.767 273.556 221.071C263.253 220.74 267.591 213.671 272.491 209.411Z"/><path fill="#F4D35E" transform="scale(1.01172 1.01172)" d="M272.439 210.456C279.906 211.833 276.779 216.239 272.997 219.687C270.391 219.247 269.508 219.383 268.574 216.775C268.881 213.859 270.418 212.497 272.439 210.456Z"/><path fill="#4D3443" transform="scale(1.01172 1.01172)" d="M617.584 930.891C624.575 931.533 627.343 935.015 621.182 940.255C613.345 939.1 610.948 936.736 617.584 930.891Z"/><path fill="#F4D35E" transform="scale(1.01172 1.01172)" d="M617.027 932.473C619.736 932.225 621.465 932.195 622.798 934.742C622.788 936.594 622.26 936.964 621.111 938.431C618.537 938.06 617.362 938.106 615.783 935.9C615.762 933.826 615.737 934.507 617.027 932.473Z"/><path fill="#4D3443" transform="scale(1.01172 1.01172)" d="M128.682 473.734L129.66 474.02C129.399 481.727 128.684 489.415 128.562 497.131C128.488 501.765 129.078 505.839 129.321 510.396C125.706 502.831 127.649 482.124 128.682 473.734Z"/><path fill="#4D3443" transform="scale(1.01172 1.01172)" d="M125.742 453.868C126.351 459.079 122.606 476.832 121.673 483.21C119.556 478.069 124.007 459.751 125.742 453.868Z"/><path fill="#4D3443" transform="scale(1.01172 1.01172)" d="M139.456 496.322C142.032 499.417 142.739 508.237 143.183 512.244C139.653 508.468 139.474 501.22 139.456 496.322Z"/><path fill="#4D3443" transform="scale(1.01172 1.01172)" d="M247.768 214.329C256.515 215.006 249.645 228.049 243.245 225.035C242.435 223.603 242.179 223.825 242.369 222.746C243.471 223.653 244.165 224.15 245.32 224.944C249.036 223.305 253.613 217.773 248.685 215.801C246.694 215.923 244.95 217.189 243.171 218.205C245.042 216.084 245.356 215.796 247.768 214.329Z"/><path fill="#4D3443" transform="scale(1.01172 1.01172)" d="M143.544 480.832C145.429 482.795 146.002 491.22 146.356 494.207C142.995 491.76 143.516 484.631 143.544 480.832Z"/><path fill="#4E3E3A" transform="scale(1.01172 1.01172)" d="M542.015 946.163C545.763 946.463 547.786 946.631 551.432 947.446C547.883 947.488 538.5 947.773 535.478 947.058C537.893 947.051 540.012 947.533 542.015 946.163Z"/><path fill="#4E3E3A" transform="scale(1.01172 1.01172)" d="M738.867 106.71C740.744 106.495 743.691 105.955 745.388 106.436C743.791 107.346 741.308 107.539 739.42 107.831L738.867 106.71Z"/><path fill="#4E3E3A" transform="scale(1.01172 1.01172)" d="M879.393 820.695C880.762 819.858 882.84 818.301 884.314 818.316C883.356 819.754 881.558 820.545 880.002 821.43L879.393 820.695Z"/><path fill="#4E3E3A" transform="scale(1.01172 1.01172)" d="M128.682 473.734C128.976 472.059 128.765 471.175 129.768 470.461C130.205 472.22 130.062 472.297 129.66 474.02L128.682 473.734Z"/><path fill="#4E3E3A" transform="scale(1.01172 1.01172)" d="M102.284 599.885C101.989 597.775 101.831 597.435 102.348 595.435C103.133 596.332 102.954 596.809 103.181 598.216L102.284 599.885Z"/><path fill="#4E3E3A" transform="scale(1.01172 1.01172)" d="M283.818 859.24C283.113 858.597 282.883 858.263 282.275 857.525L282.583 857.046L284.314 858.052L283.818 859.24Z"/><path fill="#C87E00" transform="scale(1.01172 1.01172)" d="M460.751 527.013C474.249 532.387 487.363 539.826 500.67 545.678C530.702 558.884 561.163 571.097 591.527 583.51C606.635 589.687 621.254 596.803 636.923 601.428L603.271 727.561C595.141 757.542 584.779 790.222 579.643 820.428C568.029 817.067 559.799 813.772 548.624 809.296C518.513 797.59 488.116 787.11 458.303 774.693C448.485 770.604 438.67 767.192 428.97 762.724C442.874 761.775 458.651 758.349 469.842 748.888C482.544 738.151 490.039 707.892 467.001 705.207C452.675 703.537 433.059 707.791 417.631 708.032C423.115 682.745 430.393 658.112 436.382 633.058C444.802 597.825 452.498 562.293 460.751 527.013Z"/><path fill="#C87E00" transform="scale(1.01172 1.01172)" d="M771.435 501.081C772.169 504.305 763.359 535.66 762.096 541.165C752.773 581.807 741.55 622.994 734.799 664.134C725.596 663.907 718.908 660.944 710.924 656.657C699.555 650.553 694.556 650.77 693.972 664.451C683.687 670.528 679.822 674.899 686.157 686.419C673.29 700.196 689.928 713.684 701.864 719.971C705.184 721.719 709.547 722.682 713.206 723.415C703.648 733.023 692.109 741.648 681.778 750.558C667.491 762.88 653.933 775.568 640.15 788.442C634.087 793.365 621.855 806.771 616.18 812.692L665.033 630.715C666.238 626.391 673.067 598.016 674.097 596.977C690.453 580.468 718.554 554.604 734.227 538.481L757.16 514.518C760.886 510.679 767.141 504 771.435 501.081Z"/><path fill="#C87E00" transform="scale(1.01172 1.01172)" d="M645.296 598.569C653.948 602.06 656.001 601.078 665.148 599.664C663.902 610.73 658.712 626.864 655.625 638.039L637.64 703.407L617.118 780.321C613.543 793.807 609.191 812.358 604.587 825.096C597.133 827.159 592.67 826.595 585.1 825.863C587.924 816.407 590.353 805.919 592.83 796.271L606.119 745.306L645.296 598.569Z"/><path fill="#C6C9CE" transform="scale(1.01172 1.01172)" d="M414.975 682.537L415.328 682.934C415.912 685.799 413.143 694.186 412.192 697.406C407.798 700.85 404.66 705.475 410.701 709.719C421.1 717.026 437.395 711.85 449.004 710.943C455.838 710.319 464.963 708.516 471.075 712.491C473.136 713.831 473.203 717.629 471.318 719.213C458.122 730.306 436.904 730.485 420.662 731.396C434.406 736.16 448.082 735.346 461.885 730.733C464.57 729.836 470.576 726.768 473.369 725.442L473.962 725.734C474.703 734.908 461.228 739.786 454.071 741.405C447.482 742.245 426.304 742.34 423.441 743.764L423.617 744.485C433.713 749.353 451.281 747.01 462.043 745.056C440.397 758.322 421.308 756.005 397.624 748.476C370.585 739.881 372.467 717.877 389.031 699.753C396.1 692.019 405.076 686.605 414.975 682.537Z"/><path fill="#F4D35E" transform="scale(1.01172 1.01172)" d="M490.165 514.699C499.855 513.668 511.244 516.643 520.705 518.96C555.936 527.587 589.004 543.694 617.093 566.688C627.413 575.137 636.01 581.987 644.666 592.45C638.376 590.15 631.837 587.309 625.626 584.72C618.112 581.437 610.176 578.82 602.548 575.766C556.521 557.341 511.387 537.358 464.719 520.535C473.449 517.71 481.005 515.661 490.165 514.699Z"/><defs><linearGradient id="gradient_3" gradientUnits="userSpaceOnUse" x1="559.85236" y1="552.34528" x2="562.32202" y2="546.57135"><stop offset="0" stop-color="#574562"/><stop offset="1" stop-color="#AB9C00"/></linearGradient></defs><path fill="url(#gradient_3)" transform="scale(1.01172 1.01172)" d="M495.864 525.02C499.111 525.205 511.888 528.904 515.491 529.895C549.954 539.375 595.673 557.525 623.993 579.621C620.156 579.051 616.638 576.718 613.248 574.853C589.805 561.952 565.493 549.925 540.234 540.991C525.313 535.713 510.231 532.03 495.864 525.02Z"/><path fill="#F4D35E" transform="scale(1.01172 1.01172)" d="M741.447 485.392C748.547 486.392 764.162 492.058 770.989 494.452C731.811 525.249 700.951 556.676 665.826 591.835L659.58 590.236C665.457 582.804 671.722 576.378 677.746 569.298C699.081 544.225 721.498 524.137 747.246 503.622C752.544 499.724 756.212 496.465 760.785 491.774C736.926 503.378 699.227 542.828 680.043 562.88C670.416 572.943 666.602 580.956 653.714 591.699C665.638 562.962 689.424 533.649 711.495 512.035C720.219 503.492 732.06 493.577 741.447 485.392Z"/><path fill="#C6C9CE" transform="scale(1.01172 1.01172)" d="M694.446 671.969C697.258 674.347 697.994 678.306 704.011 682.112C717.716 690.782 730.872 692.979 746.453 689.905C745.014 694.637 743.217 698.259 740.896 702.584C727.825 711.739 688.74 695.376 689.518 676.821C689.604 674.783 692.692 673.264 694.446 671.969Z"/><path fill="#C6C9CE" transform="scale(1.01172 1.01172)" d="M701.437 658.195C704.698 659.486 710.12 662.963 713.12 664.8C720.976 670.062 730.672 669.985 739.791 669.56C748.002 669.178 750.566 681.224 746.084 684.665C735.325 687.267 721.649 685.585 711.839 680.549C702.169 675.584 695.848 668.923 701.437 658.195Z"/><path fill="#C6C9CE" transform="scale(1.01172 1.01172)" d="M380.58 691.049C382.94 690.892 385.793 690.471 387.629 692.013C387.479 693.015 383.274 698.246 382.07 699.742C377.509 705.409 374.906 710.998 372.506 717.666C370.804 722.394 372.78 735.95 371.238 738.137L369.828 738.287C356.42 732.472 360.03 718.697 364.766 707.997C368.359 699.88 372.343 694.699 380.58 691.049Z"/><path fill="#C6C9CE" transform="scale(1.01172 1.01172)" d="M687.998 689.702C690.582 691.691 694.152 695.66 697.371 698.104C710.077 707.75 720.244 711.628 736.002 709.88L730.613 714.453C712.853 725.438 681.51 703.634 687.998 689.702Z"/><path fill="#0D3B66" transform="scale(1.01172 1.01172)" d="M818.542 302.23C818.118 287.923 822.361 271.438 823.77 257.119C824.296 251.776 825.399 241.736 828.884 237.657C835.778 235.514 852.366 261.114 856.113 266.927C858.999 271.023 861.48 274.714 864.192 278.928C865.924 281.535 867.477 284.089 869.1 286.762L889.198 282.766C896.562 281.303 924.546 275.449 929.803 280.148C930.757 281.001 931.14 282.05 931.101 283.302C930.837 291.651 899.361 319.252 892.132 326.109C897.974 333.348 924.041 376.78 922.327 384.674C921.709 385.396 921.561 385.749 920.637 386.095C912.694 389.071 871.02 367.863 861.416 363.516C853.874 371.791 846.46 380.186 839.04 388.57C834.572 393.618 830.189 399.124 825.195 403.647C822.785 405.829 818.418 409.222 814.913 408.565C814.123 408.417 813.404 408.044 812.913 407.413C808.99 402.376 814.677 355.709 815.19 347.087C803.068 343.351 782.752 335.789 771.119 331.331C742.975 320.545 812.56 303.766 818.542 302.23Z"/><path fill="#F4D35E" transform="scale(1.01172 1.01172)" d="M832.277 246.715C842.284 254.536 856.628 280.782 866.746 292.688C886.877 289.368 904.161 286.585 924.441 284.497C914.694 298.353 897.111 310.484 885.323 324.801C892.438 341.14 907.425 362.837 915.753 379.765C902.532 375.064 882.853 366.936 870.21 361.485C866.778 359.956 862.967 358.576 859.434 357.222C845.726 370.979 831.97 388.55 817.99 403.023C818.22 393.339 819.356 383.439 819.988 373.749C820.646 363.671 821.096 353.636 821.529 343.549C810.187 336.965 784.36 330.267 770.789 324.592C789.169 317.51 805.816 311.775 824.497 305.699C826.237 284.776 828.498 267.459 832.277 246.715Z"/><path fill="#C6C9CE" transform="scale(1.01172 1.01172)" d="M830.846 286.027C840.235 289.083 873.33 321.028 874.698 330.778C865.732 324.83 856.308 313.701 848.243 306.394C842.844 301.502 837.586 295.61 832.436 290.399C830.87 288.815 830.653 288.112 830.846 286.027Z"/><path fill="#C6C9CE" transform="scale(1.01172 1.01172)" d="M821.177 310.485C833.527 314.721 845.857 324.542 856.347 332.382C857.936 334.455 861.867 337.578 864.071 339.098C868.779 343.632 871.024 345.537 874.036 351.215C866.37 346.822 857.503 339.358 850.271 333.742C841.755 327.129 827.869 318.379 821.177 310.485Z"/><path fill="#C6C9CE" transform="scale(1.01172 1.01172)" d="M832.475 275.312C837.137 276.714 872.846 310.262 875.494 315.143C869.99 313.554 835.108 280.78 832.475 275.312Z"/><defs><linearGradient id="gradient_4" gradientUnits="userSpaceOnUse" x1="844.0553" y1="322.85394" x2="846.6488" y2="319.52582"><stop offset="0" stop-color="#F5EA7E"/><stop offset="1" stop-color="#C8C8C8"/></linearGradient></defs><path fill="url(#gradient_4)" transform="scale(1.01172 1.01172)" d="M856.347 332.382C854.991 327.6 829.007 310.615 829.98 307.479C832.529 307.279 842.273 316.066 844.684 318.066C851.775 323.95 861.269 329.927 864.071 339.098C861.867 337.578 857.936 334.455 856.347 332.382Z"/><path fill="#C6C9CE" transform="scale(1.01172 1.01172)" d="M820.825 327.997C828.771 332.397 850.188 348.198 855.189 355.674C849.776 354.192 823.347 333.243 820.825 327.997Z"/><path fill="#C6C9CE" transform="scale(1.01172 1.01172)" d="M838.186 266.473L840.145 265.111C843.551 269.183 847.62 273.849 850.647 278.134C847.125 275.646 840.858 269.909 838.186 266.473Z"/><path fill="#FBF370" transform="scale(1.01172 1.01172)" d="M831.937 256.31C836.007 258.772 838.055 260.852 840.145 265.111L838.186 266.473C835.041 262.525 833.989 260.789 831.937 256.31Z"/><path fill="#0D3B66" transform="scale(1.01172 1.01172)" d="M654.179 260.674C660.359 262.913 667.907 277.266 671.649 283.309C708.422 280.538 709.078 283.511 682.656 307.535C686.502 313.783 690.485 320.195 693.933 326.688C695.308 329.279 697.023 332.567 694.522 334.811C688.045 336.298 670.954 327.679 664.13 324.687C663.873 324.554 662.829 324.363 662.807 324.381C656.889 329.25 648.687 343.67 641.333 345.553C633.642 344.036 639.122 319.802 640.033 314.249C633.575 312.084 619.786 308.392 616.871 302.654C616.728 298.23 621.294 297.078 624.934 296.076C630.724 294.483 636.902 293.301 642.817 292.318C645.266 283.863 649.461 267.227 654.179 260.674Z"/><path fill="#F4D35E" transform="scale(1.01172 1.01172)" d="M656.041 270.181C659.479 273.248 666.088 285.576 668.636 290.058C676.224 289.91 685.564 289.027 693.26 288.503C687.561 294.532 681.5 300.57 675.681 306.511C678.883 313.15 684.176 321.368 687.965 328.149C680.98 325.928 671.031 320.938 664.14 317.672C663.275 317.383 662.958 317.378 662.054 317.234C658.037 319.095 647.191 332.768 643.641 337C643.939 328.146 644.525 319.216 645.039 310.365C637.881 307.899 631.622 305.402 624.69 302.411C631.441 300.238 640.52 298.537 647.577 297.278C649.392 288.853 653.114 278.316 656.041 270.181Z"/><path fill="#0D3B66" transform="scale(1.01172 1.01172)" d="M931.77 514.193C939.303 517.275 940.796 532.321 941.935 539.566C947.116 539.727 962.212 539.382 963.164 545.459C961.565 550.653 951.421 556.166 946.577 559.36C948.329 564.334 954.473 578.779 950.413 582.916C943.013 584.626 931.947 569.943 927.164 569.427C921.957 572.784 911.353 581.197 905.875 580.92C905 580.412 904.109 580.064 903.98 578.786C903.423 573.271 909.779 561.769 912.127 556.857C907.712 553.799 895.093 546.209 897.277 540.353C901.305 536.61 913.859 537.145 919.741 537.041C923.069 529.478 926.801 520.686 931.77 514.193Z"/><path fill="#F4D35E" transform="scale(1.01172 1.01172)" d="M932.598 523.308C935.414 527.556 937.217 538.146 938.315 543.393C942.827 544.328 951.379 545.187 956.229 545.817C950.76 549.734 945.834 552.219 939.91 555.364C940.785 561.956 942.88 567.161 945.056 573.407C940.844 571.201 931.103 563.325 927.791 562.94C922.735 565.581 916.514 569.499 911.511 572.484C913.55 566.808 916.322 560.327 918.592 554.644C912.857 550.873 908.37 547.016 903.256 542.551C910.223 542.212 916.477 542.065 923.453 542.062C926.604 536.673 929.641 529.183 932.598 523.308Z"/><path fill="#0D3B66" transform="scale(1.01172 1.01172)" d="M860.675 648.659C867.515 649.962 869 658.222 870.923 664.056C875.311 664.007 879.717 663.351 882.901 666.455C884.422 671.233 878.398 674.376 874.947 676.656C876.754 680.66 883.085 691.897 877.47 694.222C873.23 693.776 868.194 689.34 865.226 686.372L864.593 686.181C861.859 688.902 852.663 698.952 849.063 694.578C848.026 690.146 850.333 683.612 851.929 679.454C835.134 666.836 842.11 665.461 857.801 663.84C858.395 658.794 858.81 653.386 860.675 648.659Z"/><path fill="#D3D4D7" transform="scale(1.01172 1.01172)" d="M848.014 669.644C859.29 669.534 859.796 669.149 862.962 658.371C867.255 668.623 865.16 669.486 878.007 668.387C875.169 670.976 872.163 673.554 869.781 676.554C870.665 680.726 871.849 683.042 873.653 686.847C869.281 684.44 866.008 683.172 863.169 679.012L861.518 681.03L861.543 681.441C860.059 684.672 856.167 687.756 853.471 690.071C854.477 685.418 855.493 681.273 856.73 676.674L848.014 669.644Z"/><path fill="#646446" transform="scale(1.01172 1.01172)" d="M861.518 681.03C861.291 680.78 860.903 680.075 860.709 679.752C862.069 676.885 863.068 671.385 864.231 667.731C863.663 671.509 864.369 675.906 863.169 679.012L861.518 681.03Z"/><path fill="#0D3B66" transform="scale(1.01172 1.01172)" d="M582.224 408.169C587.545 409.245 588.926 413.96 590.82 418.407C594.235 418.048 597.973 416.974 599.798 420.448C599.52 423.949 597.243 425.492 594.703 427.979C595.305 431.49 596.643 436.915 594.948 439.958C590.755 441.523 589.031 436.722 583.074 438.174C580.448 440.498 578.873 442.534 575.382 442.505C571.185 440.261 573.612 434.493 574.803 430.95C571.484 429.449 566.144 427.6 566.763 423.304C569.327 419.875 573.243 419.499 577.51 417.992C579.395 414.377 579.722 412.054 582.224 408.169Z"/><path fill="#D3D4D7" transform="scale(1.01172 1.01172)" d="M583.715 414.704C585.053 418.194 585.47 419.358 587.457 422.492C590.053 422.542 592.12 422.354 594.693 422.153C592.718 424.1 590.749 426.15 588.803 428.135L585.316 430.208C583.098 431.87 580.441 434.211 578.266 436.024C578.49 432.517 578.8 431.055 579.566 427.611C577.633 426.689 575.606 425.493 573.718 424.442L581.685 422.367L583.715 414.704Z"/><path fill="#C6C9CE" transform="scale(1.01172 1.01172)" d="M588.803 428.135C589.819 430.403 590.882 432.703 591.834 434.994C589.416 433.455 587.276 432.293 585.316 430.208L588.803 428.135Z"/><path fill="#C29DA6" fill-opacity="0.011764706" transform="scale(1.01172 1.01172)" d="M856.113 266.927C857.836 265.337 857.295 266.277 857.829 264.021L858.094 264.743C858.963 267.078 858.848 267.218 860.669 268.529C862.863 268.908 863.144 268.662 865.338 267.89C865.376 270.549 862.153 270.18 864.453 272.232C866.424 273.99 867.945 274.572 869.228 276.948C869.304 278.642 869.518 277.913 868.782 279.258C867.525 278.705 867.911 276.157 864.192 278.928C861.48 274.714 858.999 271.023 856.113 266.927Z"/></svg>